<svg width="300" height="80" viewBox="0 0 300 80" fill="none" xmlns="http://www.w3.org/2000/svg">
<path fill-rule="evenodd" clip-rule="evenodd" d="M32.162 1.05L0 78.9491H106.47L138.632 1.05H32.162Z" fill="black"/>
<path fill-rule="evenodd" clip-rule="evenodd" d="M138.493 1.05H266.511L234.349 78.9491H106.331L138.493 1.05Z" fill="#DC0E0E"/>
<path fill-rule="evenodd" clip-rule="evenodd" d="M273.005 1.05H281.162L249 78.9476H240.842L273.005 1.05Z" fill="#DC0E0E"/>
<path fill-rule="evenodd" clip-rule="evenodd" d="M287.657 1.05H291.627L259.465 78.9476H255.495L287.657 1.05Z" fill="#DC0E0E"/>
<path fill-rule="evenodd" clip-rule="evenodd" d="M298.121 1.05H300L267.838 78.9476H265.959L298.121 1.05Z" fill="#DC0E0E"/>
<path fill-rule="evenodd" clip-rule="evenodd" d="M46.2113 15.5108L61.8278 15.4623C65.0202 15.4529 68.6694 15.2073 71.2486 17.4472C73.6465 19.5306 74.6898 22.9686 74.3284 26.0656C74.1188 27.8691 73.3242 29.5067 72.4953 31.0928C71.738 32.5745 70.843 33.9816 69.8221 35.2957C69.5656 35.621 69.2981 35.9401 69.0197 36.2482C67.271 38.1836 64.9248 39.6883 61.9811 40.7623L58.9732 64.6062L46.9293 64.5155L50.6082 42.4422L47.4439 42.4172L38.3187 64.6062H25.9619L46.2113 15.5108ZM83.56 15.4748L92.5476 15.5358L93.1733 39.2905L102.918 15.492H112.928L92.4381 64.6062H83.9917L84.12 39.2248L73.6684 64.6062H63.1886L83.56 15.4748ZM53.2328 36.1919C55.5769 36.2086 57.4643 35.6439 58.895 34.4979C60.3257 33.3519 61.5363 31.6256 62.527 29.319C63.4894 27.0875 63.7741 25.4144 63.381 24.2997C62.9879 23.185 61.7292 22.6177 59.6051 22.5979L55.6807 22.5698L49.9856 36.1653L53.2328 36.1919Z" fill="white"/>
<path fill-rule="evenodd" clip-rule="evenodd" d="M132.563 60.9566C131.339 58.43 131.688 54.858 133.61 50.2406L134.301 48.5826H144.615L143.947 50.1812C142.974 52.6296 142.579 54.3861 142.761 55.4508C142.944 56.5155 143.86 57.0483 145.511 57.0494C147.163 57.0494 148.493 56.5061 149.503 55.4195C150.512 54.333 151.527 52.567 152.547 50.1218C153.616 47.5555 153.984 45.6509 153.653 44.4079C153.321 43.165 152.026 42.5237 149.767 42.484C149.65 42.4434 149.033 42.4236 147.914 42.4246L150.703 35.7332H152.375C154.697 35.7332 156.535 35.1816 157.888 34.0783C159.242 32.9751 160.445 31.1591 161.497 28.6304C162.349 26.5772 162.657 25.0574 162.423 24.0709C162.188 23.0845 161.243 22.5912 159.588 22.5912C158.024 22.5912 156.731 23.1241 155.709 24.1898C154.688 25.2555 153.717 26.8348 152.799 28.9276L151.912 31.058H141.598L142.682 28.4537C144.422 24.2701 147.029 21.0333 150.502 18.7434C153.976 16.4535 158.013 15.3065 162.615 15.3023C167.308 15.3023 170.465 16.4082 172.086 18.6199C173.708 20.8316 173.655 24.0089 171.93 28.1518C170.783 30.9141 169.169 33.2326 167.09 35.1075C165.011 36.9824 162.873 38.1602 160.677 38.6409C164.652 40.1415 165.382 43.9116 162.867 49.9513C160.945 54.5665 158.277 58.1881 154.862 60.8158C151.447 63.4436 147.219 64.7538 142.178 64.7465C136.995 64.7465 133.791 63.4832 132.563 60.9566ZM165.781 60.3654C164.574 57.5238 164.974 53.6948 166.981 48.8783L174.077 31.8291C176.248 26.6153 179.001 22.5792 182.334 19.721C185.668 16.8628 190.036 15.4321 195.439 15.429C200.264 15.429 203.328 16.4358 204.633 18.4494C205.937 20.463 205.766 23.5016 204.118 27.5652L203.84 28.3927H193.986C194.905 26.183 195.305 24.634 195.184 23.7456C195.063 22.8571 194.22 22.4134 192.656 22.4145C191.605 22.3943 190.573 22.7044 189.708 23.3014C188.86 23.8947 188.026 24.8817 187.205 26.2623C186.384 27.6429 185.446 29.597 184.39 32.1247L182.37 36.9736C183.309 36.1049 184.53 35.424 186.033 34.9308C187.56 34.4328 189.157 34.183 190.763 34.1909C194.782 34.1909 197.181 35.4245 197.959 37.8917C198.736 40.3589 198.24 43.7239 196.468 47.9867C194.269 53.2756 191.448 57.37 188.004 60.2699C184.561 63.1699 180.235 64.6224 175.025 64.6277C170.068 64.6277 166.986 63.2069 165.781 60.3654ZM199.945 62.6443C198.375 61.4806 197.654 59.8325 197.783 57.7001C197.913 55.5676 198.643 52.9033 199.973 49.7073H210.021C208.874 52.4706 208.33 54.4737 208.388 55.7167C208.447 56.9597 209.327 57.5812 211.03 57.5812C212.369 57.5812 213.516 57.1865 214.471 56.3971C215.426 55.6077 216.265 54.5327 216.988 53.1718C217.708 51.81 218.604 49.846 219.675 47.2797C220.89 44.36 221.496 42.179 221.494 40.7369C221.492 39.2947 220.554 38.5747 218.679 38.5768C216.269 38.5768 214.131 40.0174 212.266 42.8985H203.35L215.419 15.6636H240.406L237.122 23.5375H220.648L215.63 34.1378C216.537 33.4652 217.844 32.9021 219.548 32.4485C221.236 31.9969 222.976 31.7682 224.723 31.7681C228.429 31.7681 230.671 33.0903 231.448 35.7348C232.226 38.3792 231.619 42.0894 229.628 46.8652C228.05 50.6567 226.359 53.8048 224.555 56.3095C222.786 58.7857 220.463 60.8137 217.77 62.2314C215.048 63.6704 211.725 64.5463 207.794 64.5463C204.129 64.5463 201.512 63.808 199.945 62.6443ZM182 55.834C183.107 54.5118 184.261 52.4106 185.461 49.5305C186.3 47.5159 186.882 45.9564 187.207 44.8522C187.531 43.7479 187.531 42.8615 187.207 42.1931C186.884 41.5205 186.098 41.1874 184.848 41.1874C183.883 41.1943 182.932 41.4161 182.064 41.8365C181.21 42.2312 180.419 42.7504 179.717 43.3772L176.538 51.0149C174.648 55.5561 175.132 57.8257 177.989 57.8236C179.558 57.8205 180.895 57.1573 182 55.834Z" fill="white"/>
</svg>
